<?xml version="1.0" standalone="no"?>
<!DOCTYPE svg PUBLIC "-//W3C//DTD SVG 20010904//EN"
 "http://www.w3.org/TR/2001/REC-SVG-20010904/DTD/svg10.dtd">
<svg version="1.0" xmlns="http://www.w3.org/2000/svg"
 width="700.000000pt" height="700.000000pt" viewBox="0 0 700.000000 700.000000"
 preserveAspectRatio="xMidYMid meet">
<metadata>
Created by potrace 1.14, written by Peter Selinger 2001-2017
</metadata>
<g transform="translate(0.000000,700.000000) scale(0.100000,-0.100000)"
fill="#000000" stroke="none">
<path d="M4828 5955 c-2 -1 -52 -5 -113 -9 -60 -3 -119 -8 -130 -10 -11 -2
-42 -7 -70 -11 -27 -3 -124 -24 -215 -45 -144 -34 -208 -46 -400 -75 -172 -25
-601 -25 -795 0 -141 19 -249 39 -385 70 -257 60 -360 73 -565 73 -137 0 -192
-5 -283 -23 -200 -41 -382 -110 -588 -225 -93 -52 -298 -191 -350 -238 -11 -9
-37 -32 -59 -51 -381 -323 -686 -785 -790 -1198 -96 -381 -50 -766 135 -1134
165 -328 442 -595 785 -758 184 -87 246 -121 348 -188 135 -89 198 -143 371
-315 324 -324 577 -487 991 -641 39 -14 178 -55 213 -62 9 -2 62 -12 117 -23
55 -11 132 -24 170 -27 39 -4 79 -9 90 -11 28 -6 353 -6 395 0 19 3 60 8 90
11 251 26 561 120 811 245 250 126 438 269 709 541 186 186 333 295 536 398
56 28 114 55 130 61 61 24 232 127 323 195 210 159 374 358 490 597 146 298
203 617 164 913 -56 421 -283 849 -651 1229 -388 400 -892 668 -1322 702 -105
8 -150 11 -152 9z m-2395 -159 c54 -9 144 -27 200 -41 56 -13 113 -26 127 -29
14 -2 59 -11 100 -19 114 -23 245 -40 390 -53 93 -7 413 -7 500 0 130 12 257
27 330 41 14 3 41 7 60 10 19 4 73 15 120 26 47 10 126 28 175 40 141 32 277
46 419 43 142 -3 154 -4 277 -29 196 -40 435 -144 632 -274 59 -40 107 -73
107 -75 0 -2 -34 7 -75 20 -41 13 -89 26 -107 29 -18 3 -40 8 -49 10 -56 18
-244 32 -369 30 -125 -3 -187 -10 -344 -40 -61 -12 -246 -76 -261 -91 -22 -22
-23 -52 -3 -91 13 -26 47 -34 85 -18 33 14 192 61 238 70 291 59 610 41 849
-49 201 -76 353 -173 501 -322 141 -141 220 -255 317 -454 191 -395 224 -796
96 -1175 -96 -287 -281 -549 -518 -732 -102 -78 -169 -118 -364 -213 -179 -87
-374 -208 -471 -292 -27 -23 -129 -120 -225 -214 -148 -144 -374 -333 -386
-322 -2 2 10 32 26 66 35 73 76 222 85 311 24 238 -14 416 -145 686 -98 202
-254 442 -522 807 -157 215 -319 330 -523 373 -118 26 -325 23 -430 -4 -231
-61 -368 -172 -575 -466 -409 -583 -532 -811 -585 -1087 -15 -78 -20 -239 -10
-318 15 -116 71 -296 112 -359 l16 -24 -34 23 c-43 30 -199 150 -220 170 -9 8
-88 85 -175 171 -267 261 -377 338 -696 493 -246 119 -333 179 -493 340 -197
199 -336 450 -399 717 -35 147 -41 205 -40 364 2 234 67 471 202 735 220 427
571 698 1019 786 94 19 388 26 493 12 69 -10 236 -50 315 -77 79 -27 110 -27
129 1 17 24 21 65 8 86 -20 31 -295 110 -452 129 -76 9 -311 9 -390 0 -98 -11
-251 -44 -328 -71 -23 -8 -42 -13 -42 -11 0 13 235 156 345 210 190 92 359
145 515 161 36 3 66 7 68 9 10 8 295 -6 375 -19z m1238 -2102 c121 -22 228
-82 330 -183 93 -92 129 -150 134 -214 6 -89 -53 -180 -147 -226 -54 -26 -123
-30 -197 -11 -53 14 -53 14 -77 -13 -67 -78 16 -139 179 -134 68 3 94 9 150
35 78 36 154 108 187 176 l22 46 130 -198 c237 -358 283 -439 336 -597 37
-112 46 -172 45 -301 -2 -187 -50 -349 -142 -481 -49 -69 -148 -167 -188 -186
-13 -6 -23 -13 -23 -17 0 -15 -161 -81 -279 -115 -449 -129 -892 -120 -1346
26 -302 97 -506 343 -542 657 -12 96 -6 253 11 324 40 171 115 315 343 660
l149 226 23 -42 c70 -133 206 -216 351 -216 66 0 143 21 171 46 25 22 24 65
-1 92 -24 25 -34 26 -110 9 -65 -16 -99 -14 -153 8 -134 54 -199 190 -144 305
12 24 62 86 112 136 146 148 280 201 506 202 53 0 129 -6 170 -14z"/>
<path d="M1802 5312 c-58 -49 -54 -262 7 -406 l19 -44 -31 5 c-101 16 -212
137 -231 251 -2 15 -5 46 -5 70 -2 76 -76 112 -119 58 -43 -55 -3 -240 74
-342 l23 -32 -38 -9 c-110 -28 -225 42 -271 163 -12 33 -29 67 -37 77 -43 47
-121 -5 -108 -73 11 -59 53 -136 103 -189 l47 -50 -61 -31 c-106 -53 -200 -37
-274 48 -22 24 -40 48 -40 52 0 5 -13 12 -28 18 -37 13 -79 -9 -88 -45 -13
-51 74 -161 157 -198 21 -10 39 -21 39 -26 0 -4 -31 -36 -69 -71 -86 -79 -158
-104 -248 -84 -24 5 -85 35 -93 45 -31 42 -89 44 -120 4 -15 -20 -17 -29 -8
-53 21 -61 136 -128 236 -137 65 -6 69 -8 54 -26 -18 -21 -72 -163 -92 -240
-25 -99 -32 -164 -32 -280 1 -386 210 -750 537 -933 72 -40 228 -98 290 -109
22 -3 62 -10 88 -14 74 -12 282 -5 368 13 232 49 421 150 562 301 20 22 79
101 129 175 383 566 680 799 992 777 135 -10 262 -64 410 -176 37 -28 250
-245 281 -286 16 -22 32 -42 35 -45 18 -16 109 -143 187 -260 106 -158 168
-230 261 -298 132 -98 288 -161 482 -197 86 -16 281 -12 395 9 307 56 586 271
729 561 87 177 116 306 112 515 -3 184 -25 283 -102 448 -13 29 -24 54 -24 56
0 2 26 6 58 9 71 6 155 44 206 92 33 32 37 41 32 68 -12 61 -72 76 -124 32
-44 -37 -94 -55 -156 -56 -71 -2 -123 24 -203 101 l-62 59 52 29 c58 33 119
95 144 147 15 31 15 36 -1 60 -38 57 -81 50 -137 -24 -72 -95 -177 -118 -287
-62 l-64 32 45 44 c52 50 107 157 109 211 1 28 -4 42 -21 56 -50 39 -94 18
-118 -58 -32 -103 -145 -197 -226 -188 -40 4 -79 12 -83 17 -3 2 4 15 14 28
53 67 93 187 93 279 0 62 -22 90 -71 90 -42 0 -60 -28 -65 -103 -9 -115 -70
-220 -159 -272 -43 -25 -103 -37 -98 -20 1 6 14 44 28 85 44 124 35 334 -14
356 -30 13 -45 13 -66 2 -34 -18 -36 -29 -30 -124 7 -104 -4 -171 -42 -249
-32 -65 -101 -139 -145 -154 -30 -10 -31 -10 -25 12 33 121 32 266 -3 375 -23
76 -44 102 -83 102 -31 0 -68 -31 -68 -57 0 -10 10 -47 21 -83 56 -176 1 -388
-136 -525 -204 -204 -524 -202 -745 3 -26 25 -54 42 -68 42 -27 0 -72 -41 -72
-66 0 -27 44 -78 112 -129 123 -93 255 -137 408 -138 99 0 147 9 240 45 49 19
157 80 170 97 3 3 28 24 55 46 202 163 397 229 655 220 96 -3 146 -10 215 -30
381 -110 636 -397 699 -785 7 -40 7 -41 -48 85 -81 186 -249 371 -426 467
-335 182 -728 116 -1008 -171 -134 -136 -232 -313 -273 -491 -6 -25 -13 -54
-16 -65 -3 -11 -7 -76 -9 -145 -2 -111 3 -170 22 -232 8 -27 -11 -22 -23 5
-23 50 -198 271 -295 372 -324 339 -652 446 -975 319 -234 -92 -475 -309 -697
-628 -37 -53 -69 -96 -71 -96 -3 0 0 12 6 27 26 68 31 272 9 389 -65 352 -327
667 -645 775 -363 125 -754 -26 -993 -381 -32 -47 -71 -115 -87 -152 -16 -38
-33 -68 -36 -68 -8 0 14 102 37 170 22 66 90 196 130 249 153 202 368 333 624
380 50 9 285 8 320 -1 8 -3 31 -8 50 -12 58 -13 151 -47 215 -79 55 -27 143
-82 155 -97 3 -3 25 -21 50 -40 25 -19 53 -42 64 -52 31 -28 156 -85 226 -104
85 -22 235 -22 318 0 123 33 226 90 308 172 55 55 61 93 22 127 -33 28 -65 21
-116 -26 -100 -91 -171 -127 -286 -148 -251 -43 -504 110 -586 356 -25 74 -33
192 -18 256 5 24 11 51 13 59 2 8 8 28 14 43 16 41 14 55 -13 82 -28 28 -71
26 -97 -5 -25 -29 -59 -170 -61 -247 -1 -76 9 -164 23 -201 5 -14 8 -26 7 -28
-2 -1 -22 6 -45 16 -57 25 -126 115 -153 200 -23 71 -28 153 -16 235 7 43 5
53 -12 68 -29 26 -66 30 -90 9z m-87 -885 c278 -71 504 -288 598 -572 32 -98
36 -116 43 -230 15 -206 -57 -390 -203 -518 -269 -237 -762 -262 -1075 -54
-185 122 -280 302 -280 527 2 380 260 737 604 834 29 8 64 17 78 19 32 5 209
1 235 -6z m3840 -2 c79 -16 208 -74 275 -124 159 -118 288 -309 340 -501 28
-105 35 -275 15 -369 -57 -259 -279 -449 -593 -505 -77 -14 -280 -15 -352 -1
-375 70 -607 323 -603 655 3 235 100 467 264 630 155 155 337 232 529 225 52
-2 109 -6 125 -10z m-4838 -527 c-3 -8 -6 -5 -6 6 -1 11 2 17 5 13 3 -3 4 -12
1 -19z"/>
<path d="M1480 4295 c-335 -82 -564 -429 -516 -782 8 -60 44 -150 84 -211 145
-221 507 -323 811 -230 144 44 278 139 343 243 142 227 93 558 -118 791 -43
46 -143 119 -202 146 -124 56 -279 73 -402 43z m299 -147 c100 -37 224 -137
263 -212 11 -21 10 -21 -13 0 -44 40 -171 94 -254 109 -40 7 -163 7 -200 0
-124 -23 -251 -81 -363 -164 l-80 -59 32 61 c40 78 155 196 226 232 127 65
270 77 389 33z m33 -248 c53 -15 118 -68 153 -124 25 -42 30 -60 32 -125 1
-63 -2 -85 -23 -128 -86 -180 -336 -206 -455 -48 -78 104 -77 236 2 336 32 40
82 76 127 89 39 12 121 12 164 0z m-468 -131 c-11 -28 -17 -74 -17 -129 0
-105 26 -178 89 -255 l43 -53 -67 18 c-206 57 -290 188 -206 321 30 48 159
157 172 145 1 -2 -5 -23 -14 -47z m782 -287 c-15 -44 -31 -65 -64 -86 -7 -4
-1 10 13 30 14 21 34 65 43 97 13 45 18 52 20 32 2 -14 -4 -47 -12 -73z m-483
-292 c66 0 118 -2 115 -6 -12 -11 -206 -9 -268 3 -54 10 -56 11 -16 8 27 -3
103 -5 169 -5z"/>
<path d="M5270 4303 c-76 -13 -194 -63 -260 -111 -329 -241 -396 -726 -135
-971 300 -280 854 -236 1077 86 123 179 111 473 -28 690 -95 148 -248 261
-406 298 -58 14 -189 18 -248 8z m244 -148 c134 -40 277 -168 332 -300 l14
-35 -62 50 c-68 55 -182 117 -270 148 -32 11 -58 19 -58 17 0 -2 -15 1 -32 6
-54 15 -188 12 -257 -6 -66 -17 -133 -46 -198 -86 l-38 -23 22 30 c72 101 208
192 318 212 64 12 164 6 229 -13z m-139 -269 c95 -45 153 -127 159 -228 5 -73
-16 -136 -65 -192 -62 -70 -108 -91 -204 -91 -90 0 -137 19 -193 76 -102 105
-102 278 1 379 81 80 203 103 302 56z m320 -101 c202 -144 197 -311 -12 -406
-34 -16 -80 -32 -103 -35 l-41 -7 31 34 c91 99 126 263 83 392 -11 31 -17 57
-14 57 3 0 28 -16 56 -35z m-820 -252 c4 -20 20 -62 37 -93 30 -54 30 -55 5
-31 -32 29 -54 74 -60 124 -6 48 9 48 18 0z m684 -337 c-9 -9 -104 -19 -174
-19 -133 1 -140 7 -13 13 69 3 141 6 159 8 18 1 31 0 28 -2z"/>
<path d="M3389 5289 c-22 -22 -22 -42 0 -124 17 -62 13 -140 -10 -208 -20 -60
-37 -88 -93 -151 -14 -16 -26 -32 -27 -35 0 -3 -2 -14 -4 -24 -5 -27 37 -69
69 -69 15 0 39 10 53 23 28 26 108 136 115 158 2 7 20 -12 40 -45 39 -64 104
-131 128 -134 28 -4 39 0 60 22 31 34 25 67 -21 118 -97 106 -125 233 -84 377
16 53 12 80 -14 100 -22 17 -67 16 -85 -3 -15 -14 -17 -14 -32 0 -22 23 -70
20 -95 -5z"/>
<path d="M3345 4383 c-223 -47 -366 -114 -468 -219 -40 -41 -43 -70 -11 -105
28 -32 67 -24 124 25 132 113 331 177 532 171 109 -4 153 -11 246 -41 94 -31
182 -79 244 -133 52 -47 87 -52 118 -19 31 34 26 69 -17 110 -86 82 -218 151
-360 190 -61 16 -112 21 -233 23 -85 2 -164 1 -175 -2z"/>
<path d="M3065 3477 c-123 -40 -167 -181 -89 -285 60 -78 182 -92 252 -29 20
19 25 20 45 7 96 -60 173 -80 268 -69 50 5 139 40 180 70 12 9 24 6 58 -17 35
-23 54 -28 100 -28 108 0 176 70 176 179 0 110 -69 180 -177 179 -48 0 -65 -5
-99 -30 -23 -16 -51 -47 -63 -69 -54 -100 -103 -140 -189 -151 -100 -14 -184
34 -239 138 -51 96 -133 134 -223 105z m89 -149 c13 -19 14 -25 2 -43 -17 -26
-49 -31 -70 -10 -20 21 -20 39 0 59 22 22 50 20 68 -6z m762 -3 c12 -18 11
-24 -2 -43 -19 -27 -60 -29 -74 -3 -14 27 -13 37 6 56 21 21 53 16 70 -10z"/>
<path d="M2342 2019 c-26 -10 -44 -51 -36 -83 6 -24 80 -86 154 -129 77 -44
269 -113 371 -132 12 -2 28 -6 37 -9 9 -3 33 -8 52 -11 19 -3 60 -10 90 -16
128 -24 333 -36 560 -33 129 2 246 5 260 8 14 2 50 7 80 10 30 4 62 9 70 11 8
2 38 6 65 10 73 9 259 59 350 94 96 37 192 92 251 144 50 44 58 83 24 117 -28
28 -67 25 -106 -9 -78 -69 -214 -132 -375 -174 -123 -33 -254 -53 -459 -73
-63 -5 -403 -5 -470 1 -139 12 -175 17 -365 49 -145 25 -365 115 -441 180 -51
44 -82 56 -112 45z"/>
</g>
</svg>
