<?xml version="1.0" encoding="UTF-8"?>
<svg width="700pt" height="700pt" version="1.1" viewBox="0 0 700 700" xmlns="http://www.w3.org/2000/svg">
 <path d="m374 381.28c3.1094 3.6602 7.7695 6.4961 13.852 6.4961 14.727 0 21.273-14.867 16.801-25.375-6.5586-15.527-27.848-14.254-33.734 0.29297 0 0.007813 0 0.015626-0.007812 0.019532-7.7578 19.117-34.551 18.93-42.195-0.019532v-0.007812-0.015625c-6.8828-16.926-28.195-13.363-33.727-0.28125-4.6484 10.914 2.5625 25.383 16.793 25.383 5.3984 0 10.305-2.3047 13.859-6.4883 13.68 12.18 34.855 12.012 48.359-0.003906zm13.789-16.398c2.5703 0 4.6562 2.0859 4.6562 4.6562 0 2.5703-2.0859 4.6602-4.6562 4.6602-2.5703 0-4.6562-2.0938-4.6562-4.6602 0.003906-2.5703 2.0898-4.6562 4.6562-4.6562zm-76.004 9.3164c-2.5703 0-4.6562-2.0938-4.6562-4.6602 0-2.5703 2.0859-4.6562 4.6562-4.6562s4.6562 2.0859 4.6562 4.6562c-0.003906 2.5664-2.0898 4.6602-4.6562 4.6602zm173.91-269.51c-16.812 0-33.559 1.9805-49.91 5.9414-56.051 14.902-115.5 14.91-171.71-0.035156-16.199-3.9219-32.949-5.9023-49.758-5.9023-98.508-0.003906-210.81 112.3-210.81 210.82 0 67.641 40.23 128.46 102.42 154.93 24.121 10.605 45.59 25.719 63.727 44.82 97.195 106.77 263.61 106.65 360.62 0.10547 18.227-19.215 39.695-34.328 63.723-44.898 62.273-26.5 102.51-87.324 102.51-154.96 0-98.52-112.3-210.82-210.81-210.82zm-55.004 462.14c-60.648 22.82-117.4 16.547-161.39-0.015625-26.711-12.949-45.977-36.23-45.977-76.797 0-37.703 25.754-66.492 51.5-107.18 7.7695 21.496 31.352 31.613 51.934 23.34 8.457-3.4141 3.3828-15.988-5.0898-12.613-14.715 5.9375-32.285-3.0664-35.211-18.852-1.3008-7.0078 1.3594-12.188 5.7031-17.695 21.062-26.672 42.723-27.902 57.836-27.91 15.105 0.007812 36.734 1.2383 57.77 27.832 4.207 5.3125 6.9648 11.633 5.7031 18.031-3.0664 15.699-20.512 24.508-35.148 18.594-8.3086-3.3125-13.383 9.2539-5.0977 12.613 21.629 8.6875 44.414-2.8633 51.898-23.371 25.754 40.648 51.539 69.516 51.539 107.21 0.03125 40.586-19.254 63.867-45.973 76.816zm157.91-108.85c-25.773 11.34-48.719 27.496-68.293 48.125-12.906 14.168-27.461 26.516-43.195 36.938 8.6523-14.812 13.176-32.523 13.176-53.023 0-49.078-45.297-102.26-64.77-131.66-24.785-37.465-52.527-42.832-75.223-42.859h-0.58203c-22.688 0.027344-50.434 5.3984-75.234 42.859-19.461 29.395-64.75 82.621-64.75 131.66 0 20.531 4.5508 38.227 13.223 53.055-15.777-10.449-30.395-22.84-43.344-37.07-19.473-20.523-42.426-36.672-68.277-48.047-57.234-24.363-94.223-80.273-94.223-142.45 0-40.34 34.727-154.72 151.8-154.72 19.938 0 38.996 4.6758 57.68 11.102 8.4297 2.9062 11.969-10.586 4.5508-12.816-40.746-16.227-83.363-14.855-119.34-1.8672 50.785-37.52 96.066-46.227 148.93-33.434 58.254 15.512 120.34 15.492 178.39 0.035156 42.961-10.402 90.391-9.9453 149.02 33.34-37.086-13.355-79.711-13.816-119.21 1.8984-8.2617 2.4922-3.9336 15.969 4.5156 12.844 18.523-6.832 37.723-11.102 57.66-11.102 119.82 0 151.81 115.4 151.81 154.72 0.003906 62.172-36.992 118.08-94.309 142.47zm-346.6 41.82c-6.7188-6.7344-16.344 2.8828-9.6172 9.6055 38.578 38.578 192.11 42.742 234.88 0 6.3633-6.3633-3.2539-15.98-9.6172-9.6055-35.402 35.363-180.26 35.355-215.64 0zm95.117-269.42c5.3398-5.3398 9.8438-11.188 12.703-17.852 2.8633 6.6719 7.3555 12.516 12.703 17.852 6.4258 6.4258 16.164-4.1367 9.2539-10.316-11.684-10.484-15.539-27.266-9.582-41.77 3.3828-8.2266-8.1914-13.434-12.375-5.9414-4.0938-7.3203-15.695-2.1289-12.383 5.9414 5.957 14.504 2.1055 31.289-9.582 41.77-7.0352 6.3008 2.6758 16.91 9.2617 10.316zm-50.668 54.188c-6.3008 6.3789 3.1289 16.105 9.668 9.5703 26.328-26.328 81.188-26.473 107.39 0 6.168 6.2305 15.836-3.332 9.6758-9.5742-31.508-31.805-95.238-31.805-126.74 0.003906zm371.47-26.305c2.6523-2.6523 2.6523-6.957-0.007812-9.6172-2.6523-2.6523-6.9648-2.6602-9.6172 0-8.9258 8.9375-24.508 8.9375-33.434 0-0.007813-0.007813-0.015625-0.007813-0.019531-0.015626-3.1914-3.5352-6.6094-6.7188-10.121-9.7422 8.2656-2.9609 15.609-8.8633 20.145-17.215 4.2891-7.8594-7.6875-14.355-11.941-6.4961-5.1523 9.4766-15.828 14.09-25.465 11.562-3.8867-2.1914-7.8828-4.1094-11.957-5.8047 7.8125-5.7539 13.656-14.414 15.82-24.711 1.8984-8.9883-11.426-11.773-13.309-2.793-2.4766 11.801-11.992 20.371-23.059 21.254-3.1641-0.63672-6.3555-1.1328-9.5703-1.4922 7.9102-9.043 12.41-21.133 11.836-33.902-0.41406-8.9805-14-8.3711-13.586 0.61719 0.67188 14.727-7.9531 28.16-21.016 33.117-2.0078 0.1875-4.0117 0.37891-6.0078 0.6875 6.7773-12.23 9.0156-26.887 5.4805-41.25-2.1562-8.6523-15.359-5.3906-13.211 3.2617 4.1211 16.68-1.9531 33.871-15.062 44.059-2.1055 0.8125-4.2266 1.5664-6.2852 2.5117 4.9961-14.84 4.7461-31.332-1.457-46.445-3.2773-8.0352-15.883-2.8477-12.578 5.1602 8.4648 20.629 2.9883 44.484-13.602 59.383-0.007813 0.015625-0.019531 0.015625-0.027344 0.027344-22.801 20.418-56.086 16.574-74.594-4.0742-6.1094-6.8398-16.246 2.2617-10.129 9.0781 23.199 25.871 65.059 30.879 93.793 5.1328 57.777-51.809 152.45-17.5 160.12 62.371-12.219-39.93-47.785-70.535-87.293-70.535-48.91 0-91.805 46.871-91.805 100.31 0 8.7852 1.2656 17.039 3.6484 24.652-68.402-104.85-138.44-105.96-207.55-0.019531 2.3672-7.6094 3.6406-15.855 3.6406-24.633 0-53.438-42.902-100.31-91.805-100.31-39.445 0-74.949 30.508-87.219 70.344 7.875-79.953 102.29-113.95 160.03-62.168 27.41 24.551 69.406 22.086 93.809-5.1328 6.1445-6.8516-3.9883-15.934-10.129-9.0781-19.887 22.195-53.348 23.121-74.598 4.0742-16.625-14.895-22.094-38.781-13.621-59.41 3.5781-8.6875-9.0312-13.875-12.578-5.1602-6.1953 15.105-6.4531 31.586-1.4648 46.418-2.1367-0.97266-4.3125-1.8125-6.5039-2.6523-12.957-10.219-18.934-27.309-14.832-43.898 2.1484-8.707-11.047-11.969-13.211-3.2617-3.5352 14.301-1.3164 28.938 5.418 41.133-2.0312-0.30078-4.082-0.46094-6.1406-0.65625-12.957-5.0039-21.496-18.383-20.824-33.031 0.40625-9.0156-13.18-9.6328-13.586-0.61719-0.57422 12.746 3.9219 24.816 11.797 33.859-3.2812 0.35547-6.5234 0.86719-9.7383 1.5117-10.969-0.96484-20.383-9.4922-22.848-21.23-1.8906-9.0078-15.203-6.2227-13.312 2.793 2.1562 10.27 7.9727 18.914 15.766 24.668-4.1523 1.7148-8.1836 3.6836-12.082 5.9062-9.5977 2.4062-20.16-2.2188-25.27-11.633-4.3047-7.875-16.238-1.3789-11.957 6.4961 4.543 8.3516 11.871 14.254 20.141 17.207-3.5352 3.0469-6.9453 6.2422-10.121 9.7578 0 0.007813-0.015625 0.007813-0.015625 0.015626-8.9336 8.9375-24.516 8.9375-33.438 0-6.3438-6.3555-15.969 3.2695-9.625 9.6172 10.215 10.219 22.23 11.188 28.582 10.785-24.297 43.84-16.164 100.28 22.699 135.13 47.234 42.344 125.6 28.859 155.93-16.176 73.027-114.8 128.69-114.86 201.86 0.14453 31.781 47.188 110.69 56.488 155.84 16.023 21.867-19.605 34.797-46.551 36.398-75.879 1.1406-20.965-3.7031-41.32-13.68-59.242 0.73438 0.042969 1.4688 0.125 2.2109 0.125 9.957-0.003906 19.309-3.875 26.348-10.91zm-578.24 84.441c0-46.199 36.547-86.711 78.203-86.711s78.203 40.508 78.203 86.711c0.007813 88.402-156.41 88.402-156.41 0zm383.87 0c0-46.199 36.547-86.711 78.211-86.711 41.656 0 78.211 40.508 78.211 86.711-0.007812 88.422-156.42 88.422-156.42 0zm74.094-73.957c-35.945 0-66.312 32.312-66.312 70.559 0 76.074 132.6 76.074 132.6 0 0.003906-38.246-30.355-70.559-66.289-70.559zm-51.582 71.711c0.86719 7.7617 3.9258 14.859 8.5273 20.699-9.6953-4.3203-10.066-19.133-8.5273-20.699zm13.285-4.5156c0-15.023 12.172-27.203 27.203-27.203 15.023 0 27.203 12.172 27.203 27.203 0 15.023-12.18 27.203-27.203 27.203-15.027-0.003907-27.203-12.184-27.203-27.203zm19.398 44.457c12.902 1.2109 29.637 1.4336 43.309-1.6953-14.203 5.0469-30.883 4.8438-43.309 1.6953zm34.664-13.828c15.395-13.469 17.316-34.117 9.4062-49.379 37.156 21.246 21.562 44.789-9.4062 49.379zm-59.254-58.531c25.164-39.676 76.012-31.27 92.219 10.445-5.0859-5.3555-48.52-43.43-92.219-10.445zm-398.45 31.27c0 76.074 132.6 76.074 132.6 0 0-38.246-30.367-70.559-66.312-70.559-35.93-0.003906-66.289 32.309-66.289 70.559zm41.125-22.113c-7.9102 15.262-5.9844 35.91 9.4023 49.379-30.969-4.5938-46.566-28.137-9.4023-49.379zm0.75781 61.508c13.664 3.1289 30.406 2.9062 43.309 1.6953-12.434 3.1484-29.098 3.3516-43.309-1.6953zm35.504-15.562c-15.023 0-27.203-12.18-27.203-27.203 0-15.023 12.18-27.203 27.203-27.203 15.023 0 27.195 12.172 27.195 27.203 0 15.023-12.176 27.203-27.195 27.203zm40.488-22.684c1.5391 1.5664 1.168 16.379-8.5273 20.699 4.6055-5.8398 7.6641-12.938 8.5273-20.699zm-8.0938-32.418c-43.707-32.984-87.137 5.0898-92.211 10.445 16.199-41.707 67.047-50.121 92.211-10.445z"/>
</svg>
